<svg width="78" height="78" viewBox="0 0 78 78" fill="none" xmlns="http://www.w3.org/2000/svg">
<circle cx="39" cy="39" r="39" fill="#DD3142"/>
<path d="M61.7885 47.0688V44.96C61.7885 44.5682 61.471 44.2508 61.0793 44.2508C60.6877 44.2508 60.3701 44.5682 60.3701 44.96V47.0682H53.5619V40.7544C53.5619 39.8039 52.7887 39.0306 51.8382 39.0306H48.7215V32.2224H54.7156C57.8335 32.2224 60.3701 34.759 60.3701 37.877V41.6504C60.3701 42.0421 60.6877 42.3596 61.0793 42.3596C61.471 42.3596 61.7885 42.0421 61.7885 41.6504V37.877C61.7885 33.9769 58.6156 30.804 54.7156 30.804H48.5419C48.0742 29.3921 46.7423 28.3702 45.1756 28.3702H42.824V25.6844C43.7886 25.6418 44.5878 24.9541 44.8006 24.0431H51.9072C53.2394 24.049 54.3657 22.9189 54.3657 21.5846C54.3657 20.229 53.2628 19.1261 51.9072 19.1261H44.8005C44.5807 18.1855 43.7357 17.4827 42.7292 17.4827H38.1075C37.101 17.4827 36.256 18.1855 36.0362 19.1261H28.9295C27.5839 19.1189 26.471 20.2435 26.471 21.5846C26.471 22.9402 27.574 24.0431 28.9295 24.0431H36.0362C36.2489 24.9541 37.0481 25.6418 38.0127 25.6844V28.3702H35.6611C34.0943 28.3702 32.7626 29.3921 32.2949 30.804H26.9637C26.6709 29.9786 25.8827 29.3857 24.9582 29.3857C24.0337 29.3857 23.2455 29.9786 22.9527 30.804H15.5023C15.1106 30.804 14.7931 31.1216 14.7931 31.5132C14.7931 31.9049 15.1106 32.2224 15.5023 32.2224H22.8305V39.0306H15.5023C15.1106 39.0306 14.7931 39.3481 14.7931 39.7398C14.7931 40.1314 15.1106 40.449 15.5023 40.449H22.9525C23.2453 41.2745 24.0335 41.8674 24.9581 41.8674C25.8827 41.8674 26.671 41.2745 26.9637 40.449H32.2947C32.7623 41.8611 34.0941 42.8831 35.661 42.8831H36.8601C37.2518 42.8831 37.5693 42.5656 37.5693 42.1739C37.5693 41.7822 37.2518 41.4647 36.8601 41.4647H35.6611C34.5992 41.4647 33.7167 40.6827 33.5588 39.6644C33.5585 39.6618 33.558 39.6593 33.5577 39.6567C33.5865 39.5264 33.5289 31.8436 33.5579 31.5948C33.5581 31.5933 33.5584 31.5919 33.5585 31.5904C33.7158 30.5713 34.5988 29.7886 35.6611 29.7886H45.1756C46.238 29.7886 47.1209 30.5713 47.2782 31.5904C47.2784 31.5919 47.2787 31.5933 47.2788 31.5948C47.3886 32.5385 47.3746 38.8297 47.279 39.6567C47.2787 39.6593 47.2781 39.6619 47.2779 39.6644C47.12 40.6827 46.2375 41.4647 45.1756 41.4647H40.1698C39.7781 41.4647 39.4606 41.7822 39.4606 42.1739C39.4606 42.5656 39.7781 42.8831 40.1698 42.8831H45.1756C46.7425 42.8831 48.0744 41.8611 48.542 40.449H51.8382C52.0066 40.449 52.1436 40.586 52.1436 40.7544V47.0688C51.3604 47.0749 50.7252 47.7134 50.7252 48.4978V49.8936C50.7252 50.6819 51.3666 51.3233 52.1549 51.3233H61.7772C62.5655 51.3233 63.2069 50.6819 63.2069 49.8936V48.4978C63.2069 47.7134 62.5716 47.0749 61.7885 47.0688ZM44.8567 20.5445H51.9072C52.4807 20.5445 52.9473 21.0111 52.9473 21.5846C52.9473 22.1474 52.4724 22.6276 51.9072 22.6247H44.8567V20.5445ZM35.98 22.6247H28.9295C28.356 22.6247 27.8894 22.1581 27.8894 21.5846C27.8894 21.0186 28.3627 20.5419 28.9295 20.5445H35.98V22.6247ZM25.6673 39.7399C25.6673 40.131 25.3492 40.4491 24.9581 40.4491C24.567 40.4491 24.2489 40.131 24.2489 39.7399V31.5133C24.2489 31.1222 24.567 30.8041 24.9581 30.8041C25.3492 30.8041 25.6673 31.1222 25.6673 31.5133V39.7399ZM32.1152 39.0306H27.0857V32.2224H32.1152V39.0306ZM41.4056 28.3702H39.4311V25.6868H41.4056V28.3702ZM38.1075 24.2684C37.7165 24.2684 37.3984 23.9504 37.3984 23.5593V19.6102C37.3984 19.2191 37.7165 18.901 38.1075 18.901H42.7292C43.1203 18.901 43.4384 19.2191 43.4384 19.6102V23.5593C43.4384 23.9504 43.1203 24.2684 42.7292 24.2684H38.1075ZM61.7885 49.8936C61.7885 49.8999 61.7834 49.905 61.7772 49.905H52.1549C52.1487 49.905 52.1436 49.8999 52.1436 49.8936V48.4978C52.1436 48.4917 52.1487 48.4866 52.1549 48.4866H61.7772C61.7834 48.4866 61.7885 48.4917 61.7885 48.4978V49.8936ZM57.6637 53.7771C57.2789 53.3969 56.6531 53.3969 56.2685 53.7769C54.9295 55.0995 51.8153 58.4263 51.8153 60.7475C51.8153 63.5866 54.1259 65.8965 56.966 65.8965C59.8062 65.8965 62.1168 63.5866 62.1168 60.7475C62.1168 58.4263 59.0025 55.0995 57.6637 53.7771ZM56.966 64.4781C54.908 64.4781 53.2336 62.8046 53.2336 60.7475C53.2336 59.8658 54.2185 57.8686 56.966 55.0852C59.7139 57.8687 60.6984 59.8657 60.6984 60.7475C60.6984 62.8046 59.0241 64.4781 56.966 64.4781Z" fill="white"/>
</svg>
