<svg width="78" height="78" viewBox="0 0 78 78" fill="none" xmlns="http://www.w3.org/2000/svg">
<circle cx="39" cy="39" r="39" fill="#DD3142"/>
<path d="M23.4423 52.1202C22.7703 52.1202 22.1243 52.288 21.5511 52.6029C18.5321 48.7328 16.875 43.9252 16.875 39C16.875 26.8 26.8 16.875 39 16.875C40.4832 16.875 41.9656 17.0226 43.4063 17.3137C43.9131 17.4163 44.4082 17.0881 44.5107 16.5806C44.6133 16.073 44.2852 15.5786 43.7776 15.4757C42.215 15.16 40.6077 15 39 15C32.5895 15 26.5624 17.4965 22.0294 22.0294C17.4965 26.5624 15 32.5895 15 39C15 44.3925 16.8311 49.6549 20.1647 53.8737C19.7355 54.5149 19.5048 55.2686 19.5048 56.0577C19.5048 57.1095 19.9146 58.0983 20.6583 58.8417C21.4017 59.5854 22.3905 59.9952 23.4423 59.9952C24.494 59.9952 25.4828 59.5854 26.2266 58.8417C26.9703 58.0983 27.3798 57.1091 27.3798 56.0574C27.3798 55.006 26.9703 54.0168 26.2266 53.2734C25.4828 52.5297 24.494 52.1202 23.4423 52.1202ZM24.9005 57.516C24.5112 57.9056 23.993 58.1202 23.4423 58.1202C22.8915 58.1202 22.3737 57.9056 21.984 57.516C21.5944 57.1263 21.3798 56.6085 21.3798 56.0577C21.3798 55.5066 21.5944 54.9888 21.984 54.5991C22.3733 54.2095 22.8915 53.9952 23.4423 53.9952C23.993 53.9952 24.5109 54.2098 24.9005 54.5991C25.2902 54.9888 25.5048 55.5066 25.5048 56.0577C25.5048 56.6085 25.2902 57.1263 24.9005 57.516Z" fill="white"/>
<path d="M57.8346 24.1252C58.8538 22.5963 58.6901 20.506 57.3421 19.158C56.5983 18.4146 55.6095 18.0048 54.5578 18.0048C53.506 18.0048 52.5172 18.4146 51.7735 19.158C51.0297 19.9017 50.6203 20.8905 50.6203 21.9423C50.6203 22.994 51.0297 23.9828 51.7735 24.7266C52.5172 25.4703 53.506 25.8798 54.5578 25.8798C55.2298 25.8798 55.8757 25.712 56.4489 25.3971C59.4679 29.2676 61.125 34.0748 61.125 39C61.125 51.2 51.2 61.125 39 61.125C37.5315 61.125 36.063 60.9803 34.6359 60.6947C34.1283 60.5933 33.6343 60.9225 33.5325 61.4301C33.431 61.938 33.7603 62.4316 34.2678 62.5334C35.8158 62.8429 37.4081 63 39 63C45.4105 63 51.4376 60.5035 55.9706 55.9706C60.5036 51.4376 63 45.4105 63 39C63 33.6072 61.1686 28.3444 57.8346 24.1252ZM53.0995 23.4009C52.7099 23.0112 52.4953 22.4934 52.4953 21.9423C52.4953 21.3915 52.7099 20.8737 53.0995 20.484C53.4888 20.0944 54.007 19.8798 54.5578 19.8798C55.1085 19.8798 55.6267 20.0944 56.0164 20.484C56.8202 21.2882 56.8202 22.5967 56.0164 23.4009C55.6267 23.7902 55.1085 24.0048 54.5578 24.0048C54.0066 24.0048 53.4888 23.7902 53.0995 23.4009Z" fill="white"/>
<path d="M35.1313 55.125C35.1313 55.6428 35.5514 56.0625 36.0688 56.0625H41.9308C42.4486 56.0625 42.8683 55.6428 42.8683 55.125V53.3075C44.101 52.9757 45.2794 52.4872 46.3868 51.8492L47.67 53.1324C47.8458 53.3082 48.0842 53.4071 48.3333 53.4071C48.5815 53.4071 48.8203 53.3082 48.9961 53.1321L53.1394 48.9858C53.5052 48.6196 53.5052 48.026 53.1394 47.6602L51.8577 46.3784C52.4956 45.271 52.9841 44.0925 53.3159 42.8599H55.1265C55.6443 42.8599 56.064 42.4402 56.064 41.9224V36.0604C56.064 35.5426 55.6443 35.1229 55.1265 35.1229H53.3156C52.9838 33.8906 52.4956 32.7122 51.8577 31.6047L53.1324 30.33C53.3082 30.1542 53.4071 29.9154 53.4071 29.6667C53.4067 29.4181 53.3079 29.1793 53.1321 29.0035L48.9855 24.8602C48.6196 24.4944 48.026 24.4944 47.6598 24.8606L46.3868 26.1339C45.2794 25.496 44.101 25.0074 42.8683 24.6757V22.875C42.8683 22.3572 42.4486 21.9375 41.9308 21.9375H36.0688C35.5514 21.9375 35.1313 22.3572 35.1313 22.875V24.676C33.899 25.0074 32.7206 25.496 31.6132 26.1339L30.3398 24.8606C29.974 24.4948 29.3804 24.4944 29.0142 24.8602L24.8679 29.0039C24.6918 29.1797 24.5929 29.4181 24.5929 29.6667C24.5929 29.9154 24.6918 30.1542 24.8676 30.33L26.1423 31.6047C25.5044 32.7122 25.0159 33.8903 24.6841 35.1229H22.8768C22.359 35.1229 21.9393 35.5426 21.9393 36.0601L21.936 41.922C21.9357 42.1707 22.0345 42.4094 22.2103 42.5852C22.3861 42.761 22.6245 42.8599 22.8735 42.8599H24.6841C25.0159 44.0925 25.5044 45.271 26.1423 46.3784L24.8606 47.6602C24.4948 48.026 24.4944 48.6196 24.8606 48.9858L29.0039 53.1321C29.1797 53.3079 29.4181 53.4071 29.6667 53.4071H29.6671C29.9158 53.4071 30.1542 53.3082 30.33 53.1324L31.6128 51.8492C32.7206 52.4872 33.899 52.9757 35.1313 53.3075V55.125ZM31.9805 49.8776C31.6095 49.6377 31.1213 49.6897 30.8086 50.0021L29.6671 51.1436L26.8491 48.3234L27.9895 47.1826C28.3019 46.8702 28.3539 46.3821 28.114 46.0111C27.264 44.6957 26.6664 43.2539 26.3383 41.7253C26.2452 41.2936 25.8636 40.9849 25.4216 40.9849H23.8114L23.8136 36.9979H25.4216C25.8636 36.9979 26.2452 36.6896 26.3383 36.2574C26.6664 34.7292 27.264 33.2875 28.114 31.972C28.3539 31.6011 28.3019 31.1129 27.9895 30.8005L26.8564 29.6671L29.6766 26.8491L30.8086 27.9814C31.1213 28.2938 31.6091 28.3455 31.9805 28.106C33.2955 27.256 34.7373 26.6583 36.2659 26.3302C36.6976 26.2372 37.0063 25.8552 37.0063 25.4136V23.8125H40.9933V25.4132C40.9933 25.8552 41.3016 26.2372 41.7338 26.3298C43.262 26.6583 44.7041 27.2556 46.0192 28.1056C46.3901 28.3455 46.8783 28.2938 47.1907 27.9811L48.323 26.8491L51.1432 29.6671L50.0101 30.8002C49.6974 31.1129 49.6458 31.6011 49.8856 31.972C50.7356 33.2875 51.3329 34.7292 51.6614 36.2574C51.754 36.6896 52.136 36.9979 52.578 36.9979H54.189V40.9849H52.578C52.136 40.9849 51.7544 41.2936 51.6614 41.7253C51.3333 43.2535 50.7356 44.6957 49.8856 46.0107C49.6458 46.3821 49.6978 46.8702 50.0101 47.1826L51.1505 48.323L48.3325 51.1432L47.191 50.0021C46.8783 49.6893 46.3901 49.6377 46.0192 49.8776C44.7037 50.7275 43.262 51.3248 41.7338 51.6533C41.3016 51.7463 40.9933 52.1279 40.9933 52.5699V54.1875H37.0063V52.5699C37.0063 52.1283 36.6976 51.7463 36.2659 51.6533C34.7377 51.3252 33.2959 50.7275 31.9805 49.8776Z" fill="white"/>
<path d="M46.7465 39C46.7465 34.7285 43.2715 31.2535 39 31.2535C34.7285 31.2535 31.2535 34.7285 31.2535 39C31.2535 43.2715 34.7285 46.7465 39 46.7465C43.2715 46.7465 46.7465 43.2715 46.7465 39ZM33.1285 39C33.1285 35.7623 35.7623 33.1285 39 33.1285C42.2377 33.1285 44.8715 35.7627 44.8715 39C44.8715 42.2373 42.2377 44.8715 39 44.8715C35.7623 44.8715 33.1285 42.2377 33.1285 39Z" fill="white"/>
</svg>
