<svg width="78" height="78" viewBox="0 0 78 78" fill="none" xmlns="http://www.w3.org/2000/svg">
<circle cx="39" cy="39" r="39" fill="#DD3142"/>
<path d="M63.3134 21.684H58.7084C58.1997 21.684 57.7874 22.0963 57.7874 22.605V23.0655H55.0243C54.678 23.0655 54.3767 23.2569 54.2194 23.5395C45.8728 23.8666 39.1831 30.7577 39.1831 39.1831V40.1041H38.7226C38.2139 40.1041 37.8016 40.5164 37.8016 41.0251V44.7091C37.8016 45.2178 38.2139 45.6301 38.7226 45.6301H39.1831V49.0378C39.1831 49.898 38.8478 50.7067 38.2391 51.3173C37.6293 51.9252 36.8198 52.2613 35.9596 52.2613C35.0994 52.2613 34.2898 51.9252 33.6801 51.3173C33.0713 50.7067 32.7361 49.898 32.7361 49.0378V45.6301H33.1966C33.7052 45.6301 34.1176 45.2178 34.1176 44.7091V41.0251C34.1176 40.5164 33.7052 40.1041 33.1966 40.1041H32.7361V28.0068C33.0111 27.8475 33.1966 27.5507 33.1966 27.21V24.447H33.6571C34.1657 24.447 34.5781 24.0347 34.5781 23.526V18.921C34.5781 18.4123 34.1657 18 33.6571 18H18.921C18.4123 18 18 18.4123 18 18.921V23.526C18 24.0347 18.4123 24.447 18.921 24.447H19.3815V27.21C19.3815 27.5507 19.567 27.8476 19.842 28.0068V40.1041H19.3815C18.8728 40.1041 18.4605 40.5164 18.4605 41.0251V44.7091C18.4605 45.2178 18.8728 45.6301 19.3815 45.6301H19.842V49.0378C19.842 51.2141 20.2684 53.3242 21.1084 55.3117C21.5127 56.2668 22.0128 57.1878 22.5949 58.0489C23.1714 58.9027 23.8336 59.7049 24.5631 60.4343C25.2925 61.1637 26.0947 61.826 26.9485 62.4025C27.8096 62.9846 28.7306 63.4847 29.6857 63.889C31.6732 64.729 33.7828 65.1554 35.9591 65.1554L35.9596 65.1508V65.1545V65.1554C37.1569 65.1554 38.2911 65.0301 39.4221 64.7824C40.5218 64.5411 41.5996 64.1828 42.6256 63.7159C43.6323 63.2581 44.5966 62.6926 45.4909 62.0369C46.3779 61.3848 47.2013 60.6406 47.9372 59.8228C48.2771 59.4452 48.2467 58.8622 47.8692 58.5223C47.6997 58.3694 47.4814 58.2856 47.253 58.2856C46.9924 58.2856 46.7429 58.3961 46.5687 58.5895C43.8627 61.5911 39.9963 63.3134 35.9596 63.3134C32.1475 63.3134 28.563 61.8278 25.8654 59.132C23.1696 56.4344 21.684 52.8499 21.684 49.0378V45.6301H30.894V49.0378C30.894 49.7221 31.0285 50.3852 31.2919 51.0097C31.547 51.6129 31.9127 52.1545 32.3778 52.6196C32.8429 53.0847 33.3844 53.4494 33.9877 53.7055C34.6121 53.9689 35.2753 54.1033 35.9596 54.1033C36.6439 54.1033 37.307 53.9689 37.9314 53.7055C38.5347 53.4494 39.0762 53.0847 39.5414 52.6196C40.0065 52.1545 40.3721 51.6129 40.6272 51.0097C40.8906 50.3852 41.0251 49.7221 41.0251 49.0378V45.6301H50.2351V49.0378C50.2351 49.934 50.1513 50.831 49.9865 51.705C49.9404 51.9473 49.992 52.1923 50.1311 52.3949C50.2692 52.5984 50.4792 52.7356 50.7205 52.7808C50.7776 52.7918 50.8356 52.7974 50.8927 52.7974C51.3339 52.7974 51.7143 52.4815 51.7962 52.0467C51.9823 51.0613 52.0771 50.0491 52.0771 49.0378V45.6301H52.5376C53.0463 45.6301 53.4586 45.2178 53.4586 44.7091V41.0251C53.4586 40.5164 53.0463 40.1041 52.5376 40.1041H52.0771V39.3673C52.0771 37.9958 53.0187 36.8402 54.2893 36.5129C54.4574 36.7359 54.7236 36.8806 55.0243 36.8806H57.7874V37.3411C57.7874 37.8497 58.1997 38.2621 58.7084 38.2621H63.3134C63.822 38.2621 64.2344 37.8497 64.2344 37.3411V22.605C64.2344 22.0963 63.822 21.684 63.3134 21.684ZM32.2756 43.7881H20.3025V41.9461H32.2756V43.7881ZM30.894 28.131V40.1041H21.684V28.131H30.894ZM24.9075 26.289V24.447H27.6705V26.289H24.9075ZM29.5125 26.289V24.447H31.3546V26.289H29.5125ZM23.0655 26.289H21.2235V24.447H23.0655V26.289ZM19.842 22.605V19.842H32.7361V22.605H19.842ZM51.6166 43.7881H39.6436V41.9461H51.6166V43.7881ZM54.1033 34.6669C51.9017 35.0975 50.2351 37.0415 50.2351 39.3673V40.1041H41.0251V39.1831C41.0251 31.8128 46.8271 25.772 54.1033 25.3875V34.6669ZM57.7874 35.0386H55.9453V33.1966H57.7874V35.0386ZM57.7874 31.3546H55.9453V28.5915H57.7874V31.3546ZM57.7874 26.7495H55.9453V24.9075H57.7874V26.7495ZM62.3924 36.4201H59.6294V23.526H62.3924V36.4201Z" fill="white"/>
<path d="M27.2524 54.9995C27.0811 54.7453 26.7956 54.5942 26.4889 54.5942C26.3047 54.5942 26.127 54.6486 25.9741 54.7517C25.7705 54.8899 25.6324 55.0989 25.5854 55.3403C25.5384 55.5816 25.5891 55.8265 25.7263 56.031C27.3906 58.4938 29.88 60.275 32.737 61.0459C32.8162 61.0671 32.8973 61.0781 32.9774 61.0781C33.3928 61.0781 33.7584 60.7981 33.8661 60.3966C33.9988 59.9066 33.7077 59.4 33.2168 59.2674C30.7872 58.6126 28.6689 57.0966 27.2524 54.9995Z" fill="white"/>
<path d="M44.5045 33.2713C44.2549 33.7145 44.4119 34.2761 44.8552 34.5257C44.998 34.6062 45.1532 34.6444 45.3062 34.6444C45.628 34.6444 45.9404 34.4755 46.1096 34.1751C46.2031 34.009 46.3028 33.8431 46.4058 33.6821C47.3655 32.1818 48.705 30.952 50.2792 30.1254C50.7296 29.889 50.903 29.3321 50.6666 28.8818C50.4301 28.4315 49.8732 28.2581 49.4231 28.4945C47.5659 29.4695 45.9861 30.9201 44.8541 32.6895C44.7326 32.8795 44.615 33.0752 44.5045 33.2713Z" fill="white"/>
<path d="M49.5762 56.7126C50.0848 56.7126 50.4972 56.3003 50.4972 55.7916C50.4972 55.283 50.0848 54.8706 49.5762 54.8706C49.0675 54.8706 48.6552 55.283 48.6552 55.7916C48.6552 56.3003 49.0675 56.7126 49.5762 56.7126Z" fill="white"/>
</svg>
