<svg width="78" height="78" viewBox="0 0 78 78" fill="none" xmlns="http://www.w3.org/2000/svg">
<circle cx="39" cy="39" r="39" fill="#DD3142"/>
<path d="M56.6224 26.6765H56.1648C55.8943 25.7264 55.5164 24.8148 55.036 23.953L55.3613 23.6277C55.7334 23.2556 55.9383 22.7595 55.9383 22.2305C55.9383 21.7016 55.7334 21.2055 55.361 20.8331L53.1937 18.6683C52.8215 18.2938 52.3247 18.0877 51.7948 18.0877C51.265 18.0877 50.7681 18.2938 50.3978 18.6664L50.0728 18.9914C49.2104 18.5095 48.2985 18.1309 47.349 17.8604V17.4029C47.3491 16.3131 46.4625 15.4264 45.3726 15.4264H42.3084C41.2186 15.4264 40.3319 16.3131 40.3319 17.4029V17.8604C39.3826 18.1308 38.4702 18.5095 37.606 18.9917L37.2826 18.6683C36.9102 18.2938 36.4134 18.0877 35.8836 18.0878C35.3537 18.0878 34.857 18.294 34.4866 18.6665L32.3198 20.8335C31.9476 21.2055 31.7427 21.7017 31.7427 22.2306C31.7427 22.7596 31.9476 23.2556 32.3197 23.6277L32.6449 23.9529C32.1625 24.8174 31.7844 25.7291 31.5153 26.6765H31.056C29.9662 26.6765 29.0795 27.5631 29.0795 28.653V31.7198C29.0795 32.8097 29.9662 33.6964 31.056 33.6964H31.5153C31.7844 34.6436 32.1625 35.5553 32.6449 36.4199L32.3197 36.7452C31.9475 37.1172 31.7427 37.6133 31.7427 38.1423C31.7427 38.6711 31.9475 39.1673 32.3196 39.5393L34.4848 41.7045C34.857 42.079 35.3537 42.2851 35.8835 42.2851H35.8836C36.4134 42.2851 36.9103 42.079 37.2807 41.7064L37.6059 41.3811C38.471 41.8638 39.3834 42.2419 40.3318 42.5109V42.97C40.3318 44.0598 41.2185 44.9465 42.3083 44.9465H45.3725C46.4624 44.9465 47.349 44.0598 47.349 42.97V42.5109C48.2977 42.2418 49.2094 41.8638 50.0728 41.3814L50.3959 41.7045C50.7681 42.079 51.2649 42.2851 51.7947 42.2851C52.3246 42.2851 52.8215 42.0789 53.1915 41.7067L55.3613 39.5393C55.7334 39.1672 55.9382 38.6711 55.9382 38.1422C55.9382 37.6132 55.7334 37.1172 55.3613 36.7452L55.0359 36.4198C55.5163 35.558 55.8941 34.6464 56.1647 33.6964H56.6223C57.7122 33.6964 58.5988 32.8097 58.5988 31.7198V28.653C58.5989 27.5631 57.7123 26.6765 56.6224 26.6765ZM45.5857 42.9699C45.5857 43.0854 45.4881 43.1829 45.3726 43.1829H42.3084C42.1929 43.1829 42.0954 43.0854 42.0954 42.9699V41.8251V36.2664C42.0954 35.8976 41.8659 35.5679 41.5203 35.4396C39.1509 34.5609 37.559 32.2805 37.559 29.7653C37.559 27.7719 38.5516 25.9033 40.2136 24.7672C40.2882 24.7162 40.3542 24.6746 40.4119 24.6405C40.4087 24.7551 40.4006 24.8641 40.3962 24.921C40.3896 25.0105 40.3843 25.0811 40.3843 25.1512V29.3128C40.3843 31.2229 41.8769 32.8181 43.782 32.9445C43.8209 32.947 43.8599 32.947 43.8988 32.9445C45.8026 32.8182 47.294 31.223 47.294 29.3128V25.1512C47.294 25.0815 47.2888 25.0113 47.2823 24.9223C47.2781 24.8652 47.27 24.7556 47.2669 24.6404C47.3244 24.6745 47.39 24.716 47.4643 24.7669C49.1268 25.9033 50.1194 27.7718 50.1194 29.7652C50.1194 32.2802 48.5284 34.5606 46.1604 35.4396C45.8148 35.5679 45.5855 35.8976 45.5855 36.2663V41.825V42.9699H45.5857ZM56.8354 31.7198C56.8354 31.8333 56.7359 31.9329 56.6224 31.9329H55.4802C55.0683 31.9329 54.7112 32.2181 54.6202 32.6199C54.341 33.8537 53.8574 35.0205 53.1827 36.0876C52.9625 36.4361 53.0131 36.8907 53.3046 37.1822L54.1145 37.9921C54.167 38.0447 54.1749 38.1087 54.1749 38.1422C54.1749 38.1756 54.167 38.2397 54.1147 38.2919L51.9431 40.4612C51.8935 40.5111 51.835 40.5216 51.7948 40.5216C51.7547 40.5216 51.6963 40.5111 51.6448 40.4592L50.8349 39.6493C50.543 39.3575 50.0879 39.3072 49.7395 39.528C48.9868 40.005 48.1856 40.3834 47.3491 40.6631V36.8528C50.0847 35.5798 51.8831 32.8055 51.8831 29.7651C51.8831 27.1889 50.6032 24.7761 48.4597 23.3109C48.1313 23.0865 47.1328 22.4038 46.2594 22.9065C45.4018 23.4002 45.4873 24.5577 45.5237 25.052C45.5268 25.095 45.5299 25.131 45.5306 25.1512V29.3128C45.5306 30.2779 44.793 31.0871 43.8405 31.1801C42.8867 31.087 42.1479 30.2778 42.1479 29.3128L42.1478 25.1576C42.1486 25.131 42.1518 25.095 42.155 25.0518C42.1917 24.5578 42.2779 23.401 41.421 22.9069C40.548 22.4034 39.5479 23.0863 39.2189 23.3109C37.0753 24.7762 35.7955 27.189 35.7955 29.7652C35.7955 32.8061 37.5949 35.5805 40.3319 36.8532V40.6632C39.4952 40.3835 38.6931 40.0049 37.9382 39.5277C37.7931 39.436 37.6298 39.3913 37.4673 39.3913C37.2395 39.3913 37.0136 39.4793 36.8435 39.6495L36.032 40.4612C35.9823 40.5112 35.9239 40.5217 35.8837 40.5217C35.8435 40.5217 35.7852 40.5112 35.7337 40.4594L33.5667 38.2923C33.5141 38.2398 33.5062 38.1757 33.5062 38.1423C33.5062 38.1088 33.5141 38.0448 33.5667 37.9921L34.3765 37.1822C34.668 36.8907 34.7186 36.4361 34.4984 36.0876C33.8203 35.0148 33.3368 33.8486 33.0612 32.6214C32.9709 32.2189 32.6135 31.9328 32.2009 31.9328H31.0562C30.9427 31.9328 30.8432 31.8332 30.8432 31.7198V28.6529C30.8432 28.5374 30.9407 28.4398 31.0562 28.4398H32.2009C32.6135 28.4398 32.9708 28.1537 33.0612 27.7512C33.3368 26.524 33.8202 25.3577 34.4984 24.285C34.7186 23.9365 34.668 23.4819 34.3765 23.1904L33.5666 22.3805C33.5141 22.328 33.5062 22.2639 33.5062 22.2304C33.5062 22.1969 33.5141 22.1329 33.5667 22.0803L35.7355 19.9114C35.7852 19.8615 35.8435 19.851 35.8838 19.851C35.924 19.851 35.9823 19.8615 36.0338 19.9132L36.8436 20.7231C37.1353 21.0147 37.5899 21.0652 37.9383 20.845C39.0097 20.1676 40.1772 19.6831 41.408 19.4051C41.8101 19.3143 42.0955 18.9571 42.0955 18.545V17.4029C42.0955 17.2874 42.1931 17.1899 42.3086 17.1899H45.3728C45.4883 17.1899 45.5858 17.2874 45.5858 17.4029V18.5452C45.5858 18.9573 45.8713 19.3144 46.2732 19.4053C47.5052 19.6835 48.6714 20.1678 49.7396 20.8447C50.0882 21.0655 50.5432 21.0152 50.8351 20.7234L51.6467 19.9116C51.6964 19.8617 51.7548 19.8512 51.795 19.8512C51.8352 19.8512 51.8935 19.8617 51.9454 19.9138L54.1147 22.0805C54.1672 22.1331 54.1751 22.1971 54.1751 22.2306C54.1751 22.2641 54.1672 22.3281 54.1146 22.3808L53.3048 23.1907C53.0133 23.4822 52.9627 23.9368 53.1829 24.2853C53.8575 25.3524 54.3412 26.5191 54.6204 27.753C54.7113 28.1548 55.0684 28.44 55.4804 28.44H56.6226C56.7381 28.44 56.8356 28.5375 56.8356 28.6531V31.7198H56.8354Z" fill="white"/>
<path d="M48.9782 54.2513C48.6338 54.5956 48.6338 55.154 48.9782 55.4984C49.1504 55.6705 49.376 55.7567 49.6017 55.7567C49.8273 55.7567 50.0529 55.6705 50.2251 55.4984L50.2276 55.4959C50.5719 55.1516 50.5707 54.5945 50.2263 54.2502C49.8819 53.9058 49.3225 53.9072 48.9782 54.2513Z" fill="white"/>
<path d="M53.0629 45.7098L46.0627 49.3048C45.4692 48.6902 44.6378 48.3068 43.718 48.3068H38.9217C38.6531 48.3068 38.5875 48.2855 38.5831 48.284C38.5442 48.2635 38.4213 48.148 38.3226 48.0553L38.2789 48.0142C34.3985 44.3614 31.1207 44.5928 27.3931 46.0639C26.79 46.302 26.7783 46.3025 26.1727 46.3284L25.0881 46.3292C24.7792 45.3971 23.8999 44.7225 22.8655 44.7225H19.3389C18.0492 44.7225 17 45.773 17 47.064V56.3196C17 57.6092 18.0492 58.6585 19.3389 58.6585H22.8655C23.8998 58.6585 24.779 57.9847 25.088 57.0538H27.072C27.2472 57.0538 27.2472 57.0538 27.4509 57.1112C27.525 57.1321 27.6151 57.1575 27.7315 57.1888L36.857 59.6301C37.2593 59.7388 37.6282 59.8457 37.985 59.9491C39.1542 60.2878 40.137 60.5726 41.1613 60.5726C42.319 60.5726 43.5296 60.2088 45.1217 59.1477C45.1294 59.1426 45.1371 59.1373 45.1447 59.132L46.8868 57.8897C47.2833 57.6069 47.3756 57.0563 47.0928 56.6598C46.81 56.2632 46.2593 56.1711 45.863 56.4538L44.1324 57.6878C41.8219 59.2246 40.8408 58.9405 38.4758 58.2552C38.1115 58.1497 37.7348 58.0405 37.315 57.9272L28.1888 55.4857C28.0819 55.457 27.9981 55.4333 27.9293 55.4139C27.5963 55.3201 27.4718 55.2905 27.0721 55.2905H25.207V48.0933H26.1599C26.1726 48.0933 26.1851 48.0931 26.1978 48.0926L26.2481 48.0904C26.9872 48.0589 27.194 48.0387 28.0406 47.7044C31.3145 46.4125 33.8415 46.259 37.0714 49.2995L37.115 49.3405C37.667 49.8592 37.9848 50.0705 38.9218 50.0705H43.7181C44.281 50.0705 44.7719 50.383 45.0278 50.8433C45.0305 50.8484 45.0337 50.8533 45.0365 50.8584C45.1508 51.0698 45.2158 51.3115 45.2158 51.5683C45.2158 52.3928 44.544 53.0636 43.7182 53.0636H35.945C35.4581 53.0636 35.0633 53.4583 35.0633 53.9453C35.0633 54.4323 35.4581 54.827 35.945 54.827H43.7182C45.5164 54.827 46.9793 53.3652 46.9793 51.5683C46.9793 51.324 46.9515 51.0863 46.9003 50.8573L53.8685 47.2788C54.5281 46.9402 55.4299 46.9765 55.8777 47.7031C56.2738 48.3435 56.0559 49.1947 55.3712 49.6829L52.3145 51.8599C51.9178 52.1424 51.8252 52.693 52.1077 53.0897C52.2797 53.3312 52.5511 53.46 52.8267 53.46C53.0036 53.46 53.1823 53.4068 53.3374 53.2964L56.3945 51.1191C57.8463 50.0841 58.2689 48.2167 57.3781 46.7767C56.5022 45.3552 54.6472 44.8965 53.0629 45.7098ZM23.4434 56.3196C23.4434 56.6315 23.1788 56.895 22.8655 56.895H19.3389C19.0269 56.895 18.7635 56.6314 18.7635 56.3196V47.0641C18.7635 46.7454 19.0217 46.4861 19.3389 46.4861H22.8655C23.1788 46.4861 23.4434 46.7507 23.4434 47.0641V56.3196Z" fill="white"/>
</svg>
