<svg width="51" height="52" viewBox="0 0 51 52" fill="none" xmlns="http://www.w3.org/2000/svg">
<path d="M49.7704 4.12841H44.7125C44.1537 4.12841 43.7009 4.5813 43.7009 5.14V5.6458H40.6661C40.2857 5.6458 39.9547 5.85601 39.7819 6.16636C30.6144 6.52568 23.2667 14.0946 23.2667 23.3487V24.3603H22.7609C22.2022 24.3603 21.7493 24.8132 21.7493 25.3719V29.4183C21.7493 29.977 22.2022 30.4299 22.7609 30.4299H23.2667V34.1727C23.2667 35.1176 22.8984 36.0058 22.2298 36.6764C21.5601 37.3441 20.6709 37.7133 19.7261 37.7133C18.7813 37.7133 17.8921 37.3441 17.2224 36.6764C16.5537 36.0058 16.1855 35.1176 16.1855 34.1727V30.4299H16.6913C17.25 30.4299 17.7029 29.977 17.7029 29.4183V25.3719C17.7029 24.8132 17.25 24.3603 16.6913 24.3603H16.1855V11.0731C16.4876 10.8981 16.6913 10.5722 16.6913 10.198V7.16319H17.1971C17.7558 7.16319 18.2087 6.7103 18.2087 6.1516V1.09363C18.2087 0.534922 17.7558 0.0820312 17.1971 0.0820312H1.01159C0.452891 0.0820312 0 0.534922 0 1.09363V6.1516C0 6.7103 0.452891 7.16319 1.01159 7.16319H1.51739V10.198C1.51739 10.5722 1.72113 10.8982 2.02319 11.0731V24.3603H1.51739C0.958688 24.3603 0.505797 24.8132 0.505797 25.3719V29.4183C0.505797 29.977 0.958688 30.4299 1.51739 30.4299H2.02319V34.1727C2.02319 36.5631 2.49156 38.8807 3.41413 41.0637C3.85822 42.1128 4.40751 43.1243 5.04684 44.0702C5.6801 45.0079 6.40744 45.889 7.20862 46.6902C8.0098 47.4914 8.8909 48.2187 9.82865 48.852C10.7745 49.4913 11.7861 50.0406 12.8351 50.4847C15.0181 51.4073 17.3352 51.8756 19.7256 51.8756L19.7261 51.8706V51.8746V51.8756C21.0412 51.8756 22.2869 51.7381 23.5292 51.466C24.737 51.2009 25.9209 50.8074 27.0478 50.2945C28.1535 49.7918 29.2127 49.1706 30.195 48.4504C31.1691 47.7342 32.0736 46.9168 32.8819 46.0185C33.2551 45.6038 33.2218 44.9634 32.8071 44.5901C32.621 44.4222 32.3812 44.3302 32.1303 44.3302C31.8441 44.3302 31.57 44.4516 31.3787 44.664C28.4066 47.9608 24.1599 49.8525 19.7261 49.8525C15.5391 49.8525 11.602 48.2208 8.63901 45.2598C5.67808 42.2969 4.04638 38.3597 4.04638 34.1727V30.4299H14.1623V34.1727C14.1623 34.9244 14.31 35.6527 14.5993 36.3386C14.8795 37.0012 15.2811 37.596 15.792 38.1068C16.3028 38.6177 16.8977 39.0183 17.5603 39.2995C18.2461 39.5888 18.9745 39.7365 19.7261 39.7365C20.4777 39.7365 21.206 39.5888 21.8919 39.2995C22.5545 39.0183 23.1493 38.6177 23.6602 38.1068C24.171 37.596 24.5726 37.0012 24.8528 36.3386C25.1422 35.6527 25.2898 34.9244 25.2898 34.1727V30.4299H35.4058V34.1727C35.4058 35.157 35.3137 36.1423 35.1327 37.1023C35.0821 37.3684 35.1387 37.6375 35.2915 37.86C35.4432 38.0836 35.6739 38.2343 35.9389 38.2839C36.0016 38.296 36.0653 38.3021 36.1281 38.3021C36.6126 38.3021 37.0304 37.9551 37.1204 37.4776C37.3248 36.3952 37.429 35.2835 37.429 34.1727V30.4299H37.9348C38.4935 30.4299 38.9464 29.977 38.9464 29.4183V25.3719C38.9464 24.8132 38.4935 24.3603 37.9348 24.3603H37.429V23.551C37.429 22.0446 38.4631 20.7754 39.8587 20.4159C40.0433 20.6608 40.3358 20.8197 40.6661 20.8197H43.7009V21.3255C43.7009 21.8842 44.1537 22.3371 44.7125 22.3371H49.7704C50.3291 22.3371 50.782 21.8842 50.782 21.3255V5.14C50.782 4.5813 50.3291 4.12841 49.7704 4.12841ZM15.6797 28.4067H2.52898V26.3835H15.6797V28.4067ZM14.1623 11.2096V24.3603H4.04638V11.2096H14.1623ZM7.58695 9.18638V7.16319H10.6217V9.18638H7.58695ZM12.6449 9.18638V7.16319H14.6681V9.18638H12.6449ZM5.56377 9.18638H3.54058V7.16319H5.56377V9.18638ZM2.02319 5.14V2.10522H16.1855V5.14H2.02319ZM36.9232 28.4067H23.7725V26.3835H36.9232V28.4067ZM39.6545 18.3883C37.2363 18.8613 35.4058 20.9964 35.4058 23.551V24.3603H25.2898V23.3487C25.2898 15.2535 31.6626 8.61847 39.6545 8.19613V18.3883ZM43.7009 18.7965H41.6777V16.7733H43.7009V18.7965ZM43.7009 14.7501H41.6777V11.7154H43.7009V14.7501ZM43.7009 9.69217H41.6777V7.66899H43.7009V9.69217ZM48.7588 20.3139H45.724V6.1516H48.7588V20.3139Z" fill="white"/>
<path d="M10.1628 40.7209C9.97461 40.4417 9.66101 40.2758 9.32415 40.2758C9.12183 40.2758 8.92659 40.3354 8.75867 40.4487C8.53511 40.6005 8.38337 40.8301 8.33178 41.0951C8.28019 41.3602 8.33582 41.6293 8.48655 41.8538C10.3145 44.5588 13.0488 46.5153 16.1868 47.362C16.2738 47.3852 16.3628 47.3974 16.4508 47.3974C16.9071 47.3974 17.3087 47.0899 17.427 46.6488C17.5727 46.1106 17.253 45.5543 16.7138 45.4086C14.0453 44.6893 11.7186 43.0243 10.1628 40.7209Z" fill="white"/>
<path d="M29.1118 16.8553C28.8376 17.3421 29.01 17.9589 29.4969 18.2331C29.6538 18.3215 29.8243 18.3634 29.9923 18.3634C30.3457 18.3634 30.6889 18.1779 30.8747 17.848C30.9775 17.6655 31.0869 17.4834 31.2 17.3065C32.2542 15.6586 33.7254 14.3079 35.4545 13.4C35.9491 13.1403 36.1396 12.5287 35.88 12.0341C35.6202 11.5394 35.0085 11.3491 34.5141 11.6086C32.4743 12.6796 30.739 14.2729 29.4958 16.2162C29.3623 16.4249 29.2331 16.6399 29.1118 16.8553Z" fill="white"/>
<path d="M34.682 42.6024C35.2407 42.6024 35.6936 42.1495 35.6936 41.5908C35.6936 41.0321 35.2407 40.5792 34.682 40.5792C34.1233 40.5792 33.6704 41.0321 33.6704 41.5908C33.6704 42.1495 34.1233 42.6024 34.682 42.6024Z" fill="white"/>
</svg>
