<svg width="48" height="48" viewBox="0 0 48 48" fill="none" xmlns="http://www.w3.org/2000/svg">
<path d="M8.44226 37.1202C7.77026 37.1202 7.12427 37.288 6.55115 37.6029C3.5321 33.7328 1.875 28.9252 1.875 24C1.875 11.8 11.8 1.875 24 1.875C25.4832 1.875 26.9656 2.02258 28.4063 2.31372C28.9131 2.41626 29.4082 2.08813 29.5107 1.58057C29.6133 1.073 29.2852 0.578613 28.7776 0.475708C27.215 0.160034 25.6077 0 24 0C17.5895 0 11.5624 2.49646 7.02942 7.02942C2.49646 11.5624 0 17.5895 0 24C0 29.3925 1.83105 34.6549 5.16467 38.8737C4.73547 39.5149 4.50476 40.2686 4.50476 41.0577C4.50476 42.1095 4.91455 43.0983 5.65833 43.8417C6.40173 44.5854 7.3905 44.9952 8.44226 44.9952C9.49402 44.9952 10.4828 44.5854 11.2266 43.8417C11.9703 43.0983 12.3798 42.1091 12.3798 41.0574C12.3798 40.006 11.9703 39.0168 11.2266 38.2734C10.4828 37.5297 9.49402 37.1202 8.44226 37.1202ZM9.90051 42.516C9.51123 42.9056 8.99304 43.1202 8.44226 43.1202C7.89148 43.1202 7.37366 42.9056 6.98401 42.516C6.59436 42.1263 6.37976 41.6085 6.37976 41.0577C6.37976 40.5066 6.59436 39.9888 6.98401 39.5991C7.37329 39.2095 7.89148 38.9952 8.44226 38.9952C8.99304 38.9952 9.51087 39.2098 9.90051 39.5991C10.2902 39.9888 10.5048 40.5066 10.5048 41.0577C10.5048 41.6085 10.2902 42.1263 9.90051 42.516Z" fill="white"/>
<path d="M42.8346 9.12524C43.8538 7.59631 43.6901 5.50598 42.3421 4.15796C41.5983 3.41455 40.6095 3.00476 39.5578 3.00476C38.506 3.00476 37.5173 3.41455 36.7735 4.15796C36.0297 4.90173 35.6203 5.8905 35.6203 6.94226C35.6203 7.99402 36.0297 8.98279 36.7735 9.72656C37.5173 10.4703 38.506 10.8798 39.5578 10.8798C40.2298 10.8798 40.8758 10.712 41.4489 10.3971C44.4679 14.2676 46.125 19.0748 46.125 24C46.125 36.2 36.2 46.125 24 46.125C22.5315 46.125 21.063 45.9803 19.6359 45.6947C19.1283 45.5933 18.6343 45.9225 18.5325 46.4301C18.4311 46.938 18.7603 47.4316 19.2679 47.5334C20.8158 47.8429 22.4081 48 24 48C30.4106 48 36.4377 45.5035 40.9706 40.9706C45.5036 36.4376 48 30.4105 48 24C48 18.6072 46.1686 13.3444 42.8346 9.12524ZM38.0995 8.40088C37.7099 8.01123 37.4953 7.49341 37.4953 6.94226C37.4953 6.39148 37.7099 5.87366 38.0995 5.48401C38.4888 5.09436 39.007 4.87976 39.5578 4.87976C40.1086 4.87976 40.6268 5.09436 41.0164 5.48401C41.8202 6.28821 41.8202 7.59668 41.0164 8.40088C40.6268 8.79016 40.1086 9.00476 39.5578 9.00476C39.0066 9.00476 38.4888 8.79016 38.0995 8.40088Z" fill="white"/>
<path d="M20.1313 40.125C20.1313 40.6428 20.5514 41.0625 21.0688 41.0625H26.9308C27.4486 41.0625 27.8683 40.6428 27.8683 40.125V38.3075C29.101 37.9757 30.2794 37.4872 31.3868 36.8492L32.67 38.1324C32.8458 38.3082 33.0842 38.4071 33.3333 38.4071C33.5815 38.4071 33.8203 38.3082 33.9961 38.1321L38.1394 33.9858C38.5052 33.6196 38.5052 33.026 38.1394 32.6602L36.8577 31.3784C37.4956 30.271 37.9841 29.0925 38.3159 27.8599H40.1265C40.6443 27.8599 41.064 27.4402 41.064 26.9224V21.0604C41.064 20.5426 40.6443 20.1229 40.1265 20.1229H38.3156C37.9838 18.8906 37.4956 17.7122 36.8577 16.6047L38.1324 15.33C38.3082 15.1542 38.4071 14.9154 38.4071 14.6667C38.4067 14.4181 38.3079 14.1793 38.1321 14.0035L33.9855 9.86023C33.6196 9.49438 33.026 9.49438 32.6598 9.8606L31.3868 11.1339C30.2794 10.496 29.101 10.0074 27.8683 9.67566V7.875C27.8683 7.35718 27.4486 6.9375 26.9308 6.9375H21.0688C20.5514 6.9375 20.1313 7.35718 20.1313 7.875V9.67603C18.899 10.0074 17.7206 10.496 16.6132 11.1339L15.3398 9.8606C14.974 9.49475 14.3804 9.49438 14.0142 9.86023L9.86792 14.0039C9.69177 14.1797 9.5929 14.4181 9.5929 14.6667C9.5929 14.9154 9.69177 15.1542 9.86755 15.33L11.1423 16.6047C10.5044 17.7122 10.0159 18.8903 9.68408 20.1229H7.87683C7.35901 20.1229 6.93933 20.5426 6.93933 21.0601L6.93604 26.922C6.93567 27.1707 7.03455 27.4094 7.21033 27.5852C7.38611 27.761 7.62451 27.8599 7.87354 27.8599H9.68408C10.0159 29.0925 10.5044 30.271 11.1423 31.3784L9.8606 32.6602C9.49475 33.026 9.49439 33.6196 9.8606 33.9858L14.0039 38.1321C14.1797 38.3079 14.4181 38.4071 14.6667 38.4071H14.6671C14.9158 38.4071 15.1542 38.3082 15.33 38.1324L16.6128 36.8492C17.7206 37.4872 18.899 37.9757 20.1313 38.3075V40.125ZM16.9805 34.8776C16.6095 34.6377 16.1213 34.6897 15.8086 35.0021L14.6671 36.1436L11.8491 33.3234L12.9895 32.1826C13.3019 31.8702 13.3539 31.3821 13.114 31.0111C12.264 29.6957 11.6664 28.2539 11.3383 26.7253C11.2452 26.2936 10.8636 25.9849 10.4216 25.9849H8.8114L8.8136 21.9979H10.4216C10.8636 21.9979 11.2452 21.6896 11.3383 21.2574C11.6664 19.7292 12.264 18.2875 13.114 16.972C13.3539 16.6011 13.3019 16.1129 12.9895 15.8005L11.8564 14.6671L14.6766 11.8491L15.8086 12.9814C16.1213 13.2938 16.6091 13.3455 16.9805 13.106C18.2955 12.256 19.7373 11.6583 21.2659 11.3302C21.6976 11.2372 22.0063 10.8552 22.0063 10.4136V8.8125H25.9933V10.4132C25.9933 10.8552 26.3016 11.2372 26.7338 11.3298C28.262 11.6583 29.7041 12.2556 31.0192 13.1056C31.3901 13.3455 31.8783 13.2938 32.1907 12.9811L33.323 11.8491L36.1432 14.6671L35.0101 15.8002C34.6974 16.1129 34.6458 16.6011 34.8856 16.972C35.7356 18.2875 36.3329 19.7292 36.6614 21.2574C36.754 21.6896 37.136 21.9979 37.578 21.9979H39.189V25.9849H37.578C37.136 25.9849 36.7544 26.2936 36.6614 26.7253C36.3333 28.2535 35.7356 29.6957 34.8856 31.0107C34.6458 31.3821 34.6978 31.8702 35.0101 32.1826L36.1505 33.323L33.3325 36.1432L32.191 35.0021C31.8783 34.6893 31.3901 34.6377 31.0192 34.8776C29.7037 35.7275 28.262 36.3248 26.7338 36.6533C26.3016 36.7463 25.9933 37.1279 25.9933 37.5699V39.1875H22.0063V37.5699C22.0063 37.1283 21.6976 36.7463 21.2659 36.6533C19.7377 36.3252 18.2959 35.7275 16.9805 34.8776Z" fill="white"/>
<path d="M31.7463 24C31.7463 19.7285 28.2714 16.2535 23.9999 16.2535C19.7284 16.2535 16.2534 19.7285 16.2534 24C16.2534 28.2715 19.7284 31.7465 23.9999 31.7465C28.2714 31.7465 31.7463 28.2715 31.7463 24ZM18.1284 24C18.1284 20.7623 20.7622 18.1285 23.9999 18.1285C27.2375 18.1285 29.8713 20.7627 29.8713 24C29.8713 27.2373 27.2375 29.8715 23.9999 29.8715C20.7622 29.8715 18.1284 27.2377 18.1284 24Z" fill="white"/>
<path d="M32.6323 3.54565C32.8792 3.54565 33.1208 3.44531 33.2952 3.271C33.4695 3.09558 33.5698 2.85388 33.5698 2.60706C33.5698 2.36169 33.4698 2.11963 33.2952 1.94421C33.1208 1.7699 32.8792 1.66956 32.6323 1.66956C32.3848 1.66956 32.1442 1.7699 31.9698 1.94421C31.7952 2.11963 31.6948 2.3606 31.6948 2.60706C31.6948 2.85461 31.7952 3.09558 31.9698 3.271C32.1442 3.44531 32.3848 3.54565 32.6323 3.54565Z" fill="white"/>
<path d="M15.4087 44.4712C15.1622 44.4712 14.9202 44.5715 14.7458 44.7458C14.5715 44.9202 14.4712 45.1622 14.4712 45.4087C14.4712 45.6562 14.5715 45.8972 14.7458 46.0715C14.9202 46.2458 15.1622 46.3462 15.4087 46.3462C15.6552 46.3462 15.8972 46.2458 16.0715 46.0715C16.2458 45.8972 16.3462 45.6552 16.3462 45.4087C16.3462 45.1622 16.2458 44.9202 16.0715 44.7458C15.8972 44.5715 15.6552 44.4712 15.4087 44.4712Z" fill="white"/>
</svg>
