<svg width="61" height="66" viewBox="0 0 61 66" fill="none" xmlns="http://www.w3.org/2000/svg">
<path d="M57.2041 17.0619H56.5434C56.1528 15.6903 55.6072 14.3742 54.9137 13.13L55.3833 12.6603C55.9206 12.1232 56.2163 11.4069 56.2163 10.6432C56.2163 9.87952 55.9206 9.16333 55.3829 8.62561L52.2539 5.50027C51.7165 4.95962 50.9993 4.662 50.2343 4.662C49.4693 4.662 48.752 4.95962 48.2173 5.49759L47.7482 5.9667C46.5031 5.271 45.1866 4.72437 43.8158 4.33394V3.67338C43.8159 2.09995 42.5359 0.819824 40.9623 0.819824H36.5384C34.965 0.819824 33.6849 2.09995 33.6849 3.67338V4.33394C32.3143 4.72425 30.997 5.271 29.7494 5.9672L29.2824 5.50027C28.7448 4.95962 28.0276 4.662 27.2627 4.66212C26.4977 4.66212 25.7805 4.95988 25.2459 5.49772L22.1175 8.62625C21.5801 9.16333 21.2844 9.87965 21.2844 10.6433C21.2844 11.407 21.5801 12.1232 22.1173 12.6603L22.5868 13.1299C21.8904 14.3779 21.3445 15.6942 20.9561 17.0619H20.293C18.7196 17.0619 17.4395 18.342 17.4395 19.9155V24.3432C17.4395 25.9167 18.7196 27.1968 20.293 27.1968H20.9561C21.3445 28.5644 21.8904 29.8807 22.5868 31.1288L22.1173 31.5984C21.58 32.1355 21.2843 32.8518 21.2843 33.6155C21.2843 34.3791 21.58 35.0954 22.1172 35.6325L25.2432 38.7584C25.7805 39.2991 26.4976 39.5967 27.2626 39.5967H27.2627C28.0276 39.5967 28.745 39.2991 29.2798 38.7611L29.7492 38.2915C30.9982 38.9883 32.3155 39.5343 33.6847 39.9226V40.5855C33.6847 42.1589 34.9649 43.439 36.5383 43.439H40.9622C42.5357 43.439 43.8158 42.1589 43.8158 40.5855V39.9226C45.1854 39.5342 46.5017 38.9885 47.7482 38.292L48.2146 38.7584C48.752 39.2991 49.4692 39.5967 50.2341 39.5967C50.9992 39.5967 51.7165 39.299 52.2507 38.7616L55.3833 35.6325C55.9205 35.0953 56.2162 34.3789 56.2162 33.6154C56.2162 32.8517 55.9205 32.1355 55.3833 31.5984L54.9136 31.1287C55.6071 29.8845 56.1526 28.5684 56.5432 27.1968H57.2039C58.7774 27.1968 60.0575 25.9167 60.0575 24.3432V19.9155C60.0576 18.342 58.7776 17.0619 57.2041 17.0619ZM41.2699 40.5853C41.2699 40.7521 41.1291 40.8929 40.9623 40.8929H36.5384C36.3717 40.8929 36.2309 40.7521 36.2309 40.5853V38.9326V30.9072C36.2309 30.3748 35.8996 29.8987 35.4006 29.7136C31.9798 28.445 29.6815 25.1527 29.6815 21.5214C29.6815 18.6435 31.1145 15.9458 33.5141 14.3055C33.6218 14.2319 33.7171 14.1718 33.8003 14.1226C33.7957 14.288 33.784 14.4454 33.7778 14.5275C33.7682 14.6567 33.7606 14.7587 33.7606 14.8599V20.8681C33.7606 23.6258 35.9154 25.9289 38.666 26.1113C38.7221 26.115 38.7784 26.115 38.8345 26.1113C41.5832 25.929 43.7363 23.6259 43.7363 20.8681V14.8599C43.7363 14.7592 43.7288 14.6579 43.7194 14.5294C43.7133 14.4469 43.7016 14.2887 43.6971 14.1224C43.7801 14.1716 43.8748 14.2315 43.9822 14.305C46.3824 15.9456 47.8154 18.6434 47.8154 21.5212C47.8154 25.1522 45.5184 28.4446 42.0997 29.7136C41.6008 29.8989 41.2697 30.3748 41.2697 30.9071V38.9325V40.5853H41.2699ZM57.5116 24.3432C57.5116 24.5071 57.3679 24.6508 57.2041 24.6508H55.555C54.9603 24.6508 54.4447 25.0626 54.3135 25.6427C53.9103 27.424 53.2121 29.1085 52.2381 30.6492C51.9201 31.1523 51.9932 31.8086 52.414 32.2295L53.5833 33.3987C53.6591 33.4746 53.6705 33.567 53.6705 33.6154C53.6705 33.6636 53.6591 33.7562 53.5836 33.8315L50.4484 36.9634C50.3767 37.0354 50.2923 37.0506 50.2343 37.0506C50.1763 37.0506 50.0921 37.0354 50.0177 36.9606L48.8485 35.7913C48.427 35.37 47.77 35.2974 47.2669 35.6162C46.1803 36.3047 45.0236 36.8511 43.8159 37.2549V31.7539C47.7653 29.9159 50.3617 25.9107 50.3617 21.5211C50.3617 17.8018 48.5139 14.3183 45.4193 12.203C44.9452 11.879 43.5035 10.8933 42.2426 11.6191C41.0045 12.332 41.1278 14.003 41.1804 14.7167C41.185 14.7787 41.1895 14.8307 41.1905 14.8599V20.8681C41.1905 22.2615 40.1255 23.4297 38.7504 23.564C37.3734 23.4296 36.3067 22.2614 36.3067 20.8681L36.3066 14.869C36.3077 14.8307 36.3123 14.7787 36.3169 14.7164C36.37 14.0032 36.4944 12.333 35.2573 11.6197C33.9969 10.8927 32.553 11.8788 32.0781 12.203C28.9832 14.3185 27.1355 17.8019 27.1355 21.5212C27.1355 25.9114 29.7333 29.9169 33.6849 31.7544V37.255C32.4769 36.8512 31.3189 36.3046 30.229 35.6157C30.0195 35.4833 29.7837 35.4187 29.5491 35.4187C29.2203 35.4187 28.8942 35.5459 28.6486 35.7916L27.4769 36.9634C27.4053 37.0356 27.3209 37.0507 27.2628 37.0507C27.2048 37.0507 27.1206 37.0356 27.0463 36.9608L23.9178 33.8322C23.8418 33.7563 23.8304 33.6638 23.8304 33.6155C23.8304 33.5671 23.8418 33.4747 23.9178 33.3987L25.0869 32.2295C25.5077 31.8086 25.5808 31.1523 25.2628 30.6492C24.2839 29.1003 23.5858 27.4166 23.1879 25.6449C23.0576 25.0637 22.5415 24.6507 21.9459 24.6507H20.2933C20.1294 24.6507 19.9857 24.5069 19.9857 24.3431V19.9153C19.9857 19.7486 20.1265 19.6078 20.2933 19.6078H21.9459C22.5415 19.6078 23.0575 19.1947 23.1879 18.6136C23.5858 16.8418 24.2837 15.158 25.2628 13.6093C25.5808 13.1062 25.5077 12.4498 25.0869 12.029L23.9176 10.8597C23.8418 10.7839 23.8304 10.6914 23.8304 10.6431C23.8304 10.5947 23.8418 10.5023 23.9178 10.4263L27.049 7.29494C27.1206 7.22289 27.2049 7.20774 27.2629 7.20774C27.321 7.20774 27.4053 7.22289 27.4796 7.29762L28.6487 8.46687C29.0698 8.88785 29.7262 8.96079 30.2292 8.6428C31.776 7.66488 33.4616 6.96536 35.2386 6.56399C35.819 6.43287 36.2311 5.91718 36.2311 5.3223V3.67338C36.2311 3.50662 36.3719 3.36583 36.5387 3.36583H40.9626C41.1294 3.36583 41.2702 3.50662 41.2702 3.67338V5.32256C41.2702 5.91756 41.6822 6.43312 42.2626 6.56424C44.0412 6.966 45.7249 7.66513 47.2671 8.64242C47.7704 8.96118 48.4272 8.88861 48.8487 8.46725L50.0205 7.29533C50.0922 7.22327 50.1766 7.20813 50.2345 7.20813C50.2926 7.20813 50.3768 7.22327 50.4517 7.29851L53.5835 10.4267C53.6594 10.5025 53.6707 10.5949 53.6707 10.6433C53.6707 10.6917 53.6594 10.7841 53.5834 10.8601L52.4143 12.0294C51.9934 12.4502 51.9203 13.1066 52.2383 13.6097C53.2122 15.1504 53.9106 16.8347 54.3137 18.6161C54.445 19.1962 54.9605 19.608 55.5553 19.608H57.2043C57.3711 19.608 57.5119 19.7488 57.5119 19.9156V24.3432H57.5116Z" fill="white"/>
<path d="M46.1682 56.8727C45.6711 57.3698 45.6711 58.1759 46.1682 58.6732C46.4169 58.9217 46.7426 59.046 47.0684 59.046C47.3942 59.046 47.7199 58.9217 47.9686 58.6732L47.9721 58.6696C48.4693 58.1725 48.4675 57.3682 47.9702 56.8711C47.473 56.3739 46.6654 56.3759 46.1682 56.8727Z" fill="white"/>
<path d="M52.0652 44.541L41.9588 49.7311C41.102 48.8439 39.9016 48.2904 38.5737 48.2904H31.6491C31.2613 48.2904 31.1666 48.2595 31.1603 48.2574C31.1041 48.2278 30.9267 48.0611 30.7842 47.9272L30.7211 47.8678C25.1189 42.5942 20.3865 42.9283 15.0049 45.0522C14.1341 45.3959 14.1173 45.3967 13.2429 45.434L11.6771 45.4351C11.2311 44.0894 9.96162 43.1156 8.46826 43.1156H3.37676C1.51474 43.1156 0 44.6321 0 46.4961V59.8586C0 61.7205 1.51474 63.2354 3.37676 63.2354H8.46826C9.96149 63.2354 11.2308 62.2627 11.677 60.9186H14.5412C14.7942 60.9186 14.7942 60.9186 15.0884 61.0015C15.1953 61.0317 15.3254 61.0684 15.4934 61.1135L28.6682 64.6382C29.249 64.7951 29.7816 64.9495 30.2968 65.0987C31.9848 65.5878 33.4037 65.9989 34.8825 65.9989C36.554 65.9989 38.3017 65.4737 40.6003 63.9418C40.6114 63.9344 40.6225 63.9268 40.6334 63.919L43.1486 62.1255C43.7211 61.7172 43.8543 60.9223 43.446 60.3499C43.0378 59.7773 42.2426 59.6442 41.6705 60.0525L39.172 61.8341C35.8363 64.0528 34.4198 63.6426 31.0053 62.6532C30.4793 62.5009 29.9355 62.3433 29.3294 62.1796L16.1536 58.6547C15.9993 58.6132 15.8783 58.5791 15.779 58.5511C15.2983 58.4157 15.1185 58.3729 14.5414 58.3729H11.8487V47.9822H13.2244C13.2428 47.9822 13.2609 47.9818 13.2792 47.981L13.3517 47.978C14.4189 47.9324 14.7174 47.9032 15.9398 47.4206C20.6663 45.5554 24.3147 45.3338 28.9777 49.7235L29.0407 49.7827C29.8376 50.5316 30.2965 50.8366 31.6492 50.8366H38.5738C39.3865 50.8366 40.0952 51.2878 40.4646 51.9524C40.4686 51.9598 40.4732 51.9668 40.4772 51.9742C40.6422 52.2793 40.7362 52.6284 40.7362 52.9991C40.7362 54.1894 39.7663 55.1578 38.574 55.1578H27.3516C26.6486 55.1578 26.0786 55.7277 26.0786 56.4308C26.0786 57.1339 26.6486 57.7038 27.3516 57.7038H38.574C41.1701 57.7038 43.2822 55.5933 43.2822 52.9991C43.2822 52.6464 43.2419 52.3032 43.1681 51.9726L53.2284 46.8062C54.1806 46.3173 55.4826 46.3698 56.129 47.4187C56.7009 48.3433 56.3863 49.5723 55.3978 50.277L50.9847 53.42C50.412 53.8279 50.2783 54.6228 50.6862 55.1955C50.9346 55.5442 51.3264 55.7302 51.7242 55.7302C51.9797 55.7302 52.2376 55.6534 52.4615 55.494L56.8751 52.3506C58.9713 50.8562 59.5813 48.1602 58.2953 46.0813C57.0307 44.029 54.3526 43.3668 52.0652 44.541ZM9.30258 59.8586C9.30258 60.309 8.92056 60.6894 8.46826 60.6894H3.37676C2.92637 60.6894 2.546 60.3089 2.546 59.8586V46.4962C2.546 46.0361 2.91874 45.6617 3.37676 45.6617H8.46826C8.92056 45.6617 9.30258 46.0438 9.30258 46.4962V59.8586Z" fill="white"/>
</svg>
